<svg xmlns="http://www.w3.org/2000/svg" width="45.581" height="28.641" viewBox="0 0 45.581 28.641">
  <g id="Negative_1" data-name="Negative 1" transform="translate(-990 -197.237)">
    <g id="Group_105910" data-name="Group 105910" transform="translate(990 197.237)">
      <path id="Path_98954" data-name="Path 98954" d="M91.2,295.362a3.6,3.6,0,0,1-.914-.12,3.507,3.507,0,0,1-2.577-3.821,15.57,15.57,0,0,0,.1-1.672v-.122a15.817,15.817,0,0,0-.5-3.966,15.639,15.639,0,0,0-1.56-3.821,15.814,15.814,0,0,0-5.77-5.833,15.749,15.749,0,0,0-19.136,2.538,15.855,15.855,0,0,0-2.5,3.294,15.639,15.639,0,0,0-1.56,3.821,15.8,15.8,0,0,0-.5,3.966v.122a15.61,15.61,0,0,0,.1,1.672,3.513,3.513,0,1,1-6.974.859,22.761,22.761,0,0,1-.153-2.524v-.132a22.795,22.795,0,0,1,44.84-5.778h0a22.793,22.793,0,0,1,.742,5.778v.132a23.274,23.274,0,0,1-.155,2.522,3.476,3.476,0,0,1-1.5,2.474,3.516,3.516,0,0,1-1.981.61ZM72.044,272.7a16.9,16.9,0,0,1,8.519,2.309,16.968,16.968,0,0,1,6.194,6.258,16.781,16.781,0,0,1,2.218,8.361v.132a17.969,17.969,0,0,1-.11,1.8,2.355,2.355,0,0,0,3.663,2.239,2.313,2.313,0,0,0,1-1.648,21.6,21.6,0,0,0,.146-2.395v-.124a21.584,21.584,0,0,0-.7-5.483h0a21.564,21.564,0,0,0-2.144-5.237,21.777,21.777,0,0,0-7.916-7.978,21.485,21.485,0,0,0-5.237-2.189,21.752,21.752,0,0,0-11.258,0,21.525,21.525,0,0,0-5.237,2.189,21.777,21.777,0,0,0-7.916,7.978,21.532,21.532,0,0,0-2.849,10.72v.124a22.187,22.187,0,0,0,.148,2.395,2.32,2.32,0,0,0,1,1.648,2.355,2.355,0,0,0,3.663-2.239,17.326,17.326,0,0,1-.11-1.8v-.043c0-.029,0-.06,0-.089a16.781,16.781,0,0,1,2.218-8.361,16.968,16.968,0,0,1,6.194-6.258,16.9,16.9,0,0,1,8.519-2.309Z" transform="translate(-49.25 -266.837)" fill="#eaeaea"/>
      <path id="Path_98955" data-name="Path 98955" d="M53.434,295.731a3.357,3.357,0,0,1-1.888-.581,3.318,3.318,0,0,1-1.433-2.354,23,23,0,0,1-.153-2.5v-.129a22.628,22.628,0,0,1,44.512-5.734h0a22.576,22.576,0,0,1,.737,5.734v.132a23.617,23.617,0,0,1-.153,2.5,3.3,3.3,0,0,1-1.433,2.354,3.349,3.349,0,0,1-5.211-3.175,15.926,15.926,0,0,0,.1-1.691v-.124a15.934,15.934,0,0,0-20.089-15.383,15.753,15.753,0,0,0-3.861,1.62,15.909,15.909,0,0,0-7.919,13.763v.124a15.921,15.921,0,0,0,.1,1.689,3.349,3.349,0,0,1-3.325,3.756ZM72.587,273.4A16.756,16.756,0,0,1,89.35,290.16v.132a16.92,16.92,0,0,1-.11,1.777,2.52,2.52,0,0,0,3.921,2.395,2.478,2.478,0,0,0,1.074-1.766,21.9,21.9,0,0,0,.146-2.414v-.124a21.8,21.8,0,1,0-43.591,0v.124a22.542,22.542,0,0,0,.148,2.414,2.486,2.486,0,0,0,1.074,1.766,2.52,2.52,0,0,0,3.921-2.395,17,17,0,0,1-.108-1.777v-.048c0-.026,0-.055,0-.084A16.77,16.77,0,0,1,72.587,273.4Z" transform="translate(-49.79 -267.372)" fill="#fcfcfc"/>
    </g>
    <g id="Group_105911" data-name="Group 105911" transform="translate(990.584 197.814)">
      <path id="Path_98956" data-name="Path 98956" d="M195.3,301.367a22.406,22.406,0,0,1,3.524-4.627l4.144,4.144a16.482,16.482,0,0,0-2.589,3.414,16.149,16.149,0,0,0-1.617,3.962l-5.663-1.517a22.092,22.092,0,0,1,2.2-5.378Z" transform="translate(-192.378 -290.163)" fill="#f27024"/>
      <path id="Path_98957" data-name="Path 98957" d="M166.94,274.689a22.043,22.043,0,0,1,5.378-2.249l1.519,5.665a16.191,16.191,0,0,0-3.962,1.663,16.493,16.493,0,0,0-3.392,2.629l-4.144-4.144a22.463,22.463,0,0,1,4.6-3.565Z" transform="translate(-155.888 -271.677)" fill="#f2b824"/>
      <path id="Path_98958" data-name="Path 98958" d="M211.4,338.56l5.663,1.517a16.309,16.309,0,0,0-.524,4.112c0,.043,0,.084,0,.127a16.591,16.591,0,0,0,.105,1.734,2.942,2.942,0,0,1-2.151,3.194h0a2.926,2.926,0,0,1-3.67-2.469,21.931,21.931,0,0,1-.148-2.459v-.127a22.059,22.059,0,0,1,.725-5.629Z" transform="translate(-210.68 -321.979)" fill="#de1010"/>
      <path id="Path_98959" data-name="Path 98959" d="M52.212,344.316c0-.043,0-.084,0-.127a16.3,16.3,0,0,0-.524-4.112l5.663-1.517a22.193,22.193,0,0,1,.725,5.629v.127a22.586,22.586,0,0,1-.148,2.459,2.927,2.927,0,0,1-3.67,2.469h0a2.944,2.944,0,0,1-2.151-3.194,16.589,16.589,0,0,0,.105-1.734Z" transform="translate(-13.656 -321.979)" fill="#007c32"/>
      <path id="Path_98960" data-name="Path 98960" d="M58.864,296.74a22.322,22.322,0,0,1,3.524,4.627,22.092,22.092,0,0,1,2.2,5.378l-5.663,1.517a16.44,16.44,0,0,0-4.206-7.376l4.144-4.144Z" transform="translate(-20.892 -290.163)" fill="#4c9e29"/>
      <path id="Path_98961" data-name="Path 98961" d="M126.155,269.25a22.137,22.137,0,0,1,5.78.766l-1.519,5.665a16.311,16.311,0,0,0-8.526,0l-1.519-5.665a22.164,22.164,0,0,1,5.78-.766Z" transform="translate(-103.944 -269.25)" fill="#f2eb24"/>
      <path id="Path_98962" data-name="Path 98962" d="M80.169,272.45a22.083,22.083,0,0,1,5.378,2.249,22.4,22.4,0,0,1,4.6,3.565l-4.144,4.144a16.43,16.43,0,0,0-7.356-4.292Z" transform="translate(-52.179 -271.684)" fill="#aec934"/>
    </g>
    <path id="Path_98989" data-name="Path 98989" d="M685.617,333.515l-.892-12.252a.107.107,0,0,0-.214,0l-.892,12.252a2.04,2.04,0,1,0,2,0Zm-1,2.922a1.145,1.145,0,1,1,1.145-1.145A1.147,1.147,0,0,1,684.62,336.437Z" transform="translate(250.643 208.623) rotate(-25)" fill="#101012"/>
    <path id="Path_98991" data-name="Path 98991" d="M690.2,380.627a.329.329,0,1,1,.329-.329A.33.33,0,0,1,690.2,380.627Z" transform="translate(322.596 -157.154)" fill="#101012"/>
  </g>
</svg>
