<svg xmlns="http://www.w3.org/2000/svg" width="10.447" height="12.612" viewBox="0 0 10.447 12.612">
  <path id="icons8-double-right" d="M6.919,2.984a.435.435,0,0,0-.3.746l5.342,5.342L6.616,14.416a.435.435,0,1,0,.615.615l5.65-5.65a.435.435,0,0,0,0-.615l-5.65-5.65a.435.435,0,0,0-.312-.132Zm3.477,0a.435.435,0,0,0-.3.746l5.342,5.342-5.342,5.342a.435.435,0,1,0,.615.615l5.65-5.65a.435.435,0,0,0,0-.615l-5.65-5.65a.435.435,0,0,0-.312-.132Z" transform="translate(-6.276 -2.784)" fill="#49c792" stroke="#49c792" stroke-width="0.4"/>
</svg>
