<svg xmlns="http://www.w3.org/2000/svg" width="181.034" height="175.721" viewBox="0 0 181.034 175.721">
  <g id="team" transform="translate(-9.644 -65.277)">
    <path id="blob" d="M59.119-71.8C70.846-61.066,75.382-42.149,81.245-25.222,87.109-8.185,94.3,6.971,93.083,21.464S82.241,49.786,70.735,60.627A120,120,0,0,1,30.908,84.966C15.973,90.608-.4,94.038-16.552,91.715a81.812,81.812,0,0,1-44.695-22.9,90.809,90.809,0,0,1-25-46.8c-3.43-17.922-1.438-37.283,8.076-51C-68.549-42.7-51.4-50.778-35.581-59.739S-5.157-78.325,11.548-81.865C28.364-85.294,47.392-82.639,59.119-71.8Z" transform="translate(97.46 148.548)" fill="#fafaff"/>
    <g id="Group_106080" data-name="Group 106080" transform="translate(56.451 111.306)">
      <path id="Path_99116" data-name="Path 99116" d="M221.559,241.149c1.888-.665,1.678-3,.52-6.872s.139-8.143-2.254-11.611-7.859-2.248-6.81,2.192,4.411,12.784,6.066,14.956,2.479,1.332,2.479,1.332Z" transform="translate(-188.614 -199.973)" fill="#f7b690"/>
      <g id="Group_106070" data-name="Group 106070" transform="translate(18.798 46.745)">
        <path id="Path_99117" data-name="Path 99117" d="M207.27,460.542l-1.232,9.806.42,2.068-3.347.139.443-2.166.236-10.35Z" transform="translate(-200.527 -415.373)" fill="#f7b690"/>
        <path id="Path_99118" data-name="Path 99118" d="M194.911,311.664c1.347-5.315,7.513-2.015,8.568,1.143,2.768,8.273.656,23.293.665,26.5.012,4.429-6.55,8.961-7.407-.26-1.214-13.032-3.392-21.189-1.823-27.382Z" transform="translate(-194.366 -308.857)" fill="#242e47"/>
        <path id="Path_99119" data-name="Path 99119" d="M201.811,396.661c-.239,4.039-.281,24.3-.281,24.3l4.647.278s3.111-21.627,3.07-24.371-7.2-4.219-7.436-.21Z" transform="translate(-199.413 -368.983)" fill="#242e47"/>
      </g>
      <g id="Group_106071" data-name="Group 106071" transform="translate(0 93.787)">
        <path id="Path_99120" data-name="Path 99120" d="M144.539,468.08l-2.5,7.292-.213,2.13-3.59.121,1.312-2.6,1.427-6.42Z" transform="translate(-136.024 -468.08)" fill="#f7b690"/>
        <path id="Path_99121" data-name="Path 99121" d="M136.717,497.16l-3.33.015-2.647,3.451,6.346.047Z" transform="translate(-130.74 -488.568)" fill="#2c3f7a"/>
        <rect id="Rectangle_55628" data-name="Rectangle 55628" width="6.346" height="0.771" transform="translate(0 11.898)" fill="#2d417e"/>
        <path id="Path_99122" data-name="Path 99122" d="M142.895,498.512l-2.225-.035.186-.207,2.1.08Z" transform="translate(-137.736 -489.35)" fill="#a8dce0"/>
        <path id="Path_99123" data-name="Path 99123" d="M142.095,502.072l-2.225-.032.186-.21,2.1.08Z" transform="translate(-137.173 -491.859)" fill="#a8dce0"/>
        <path id="Path_99124" data-name="Path 99124" d="M140.729,500.212l2.225-.035-.183-.207-2.1.08Z" transform="translate(-137.736 -490.548)" fill="#a8dce0"/>
        <path id="Path_99125" data-name="Path 99125" d="M137.1,505.066c-.006-.795-.665-1.395-2.819-1.377s-3.528.4-3.528,1.377,3.353.387,3.353.387l3-.387Z" transform="translate(-130.747 -493.168)" fill="#3c5090"/>
      </g>
      <g id="Group_106072" data-name="Group 106072" transform="translate(3.528 47.341)">
        <path id="Path_99126" data-name="Path 99126" d="M160.541,312.712c2.981-4.6,7.761.5,7.75,3.832-.033,8.725-6.857,22.271-7.877,25.308-1.409,4.2-8.627,5.173-6.479-3.835,3.034-12.734,3.135-19.946,6.609-25.305Z" transform="translate(-150.331 -310.876)" fill="#242e47"/>
        <path id="Path_99127" data-name="Path 99127" d="M146.284,397.818c-.792,3.968-3.6,24.035-3.6,24.035l4.565.91s6.042-21,6.376-23.721-6.553-5.164-7.336-1.226Z" transform="translate(-142.68 -370.677)" fill="#242e47"/>
      </g>
      <path id="Path_99128" data-name="Path 99128" d="M171.269,331.721h0a.866.866,0,0,0-.455,1.256l.05.083a.868.868,0,0,0,.792.425l.942.074a1.4,1.4,0,0,1,.854.425l.319.3c.331.322.99.4,1.185.124h0a.28.28,0,0,0-.065-.393l-2.795-2.166a.866.866,0,0,0-.83-.13Z" transform="translate(-158.889 -278.186)" fill="#f7b690"/>
      <g id="Group_106073" data-name="Group 106073" transform="translate(20.894 102.378)">
        <path id="Path_99129" data-name="Path 99129" d="M201.849,497.16l3.327.015,2.647,3.451-6.343.047Z" transform="translate(-201.474 -497.16)" fill="#2c3f7a"/>
        <rect id="Rectangle_55629" data-name="Rectangle 55629" width="6.346" height="0.771" transform="translate(0 3.306)" fill="#2d417e"/>
        <path id="Path_99130" data-name="Path 99130" d="M205.349,498.512l2.225-.035-.183-.207-2.1.08Z" transform="translate(-204.158 -497.942)" fill="#a8dce0"/>
        <path id="Path_99131" data-name="Path 99131" d="M206.149,502.072l2.225-.032-.186-.21-2.1.08Z" transform="translate(-204.722 -500.45)" fill="#a8dce0"/>
        <path id="Path_99132" data-name="Path 99132" d="M207.515,500.212l-2.225-.035.183-.207,2.1.08Z" transform="translate(-204.158 -499.14)" fill="#a8dce0"/>
        <path id="Path_99133" data-name="Path 99133" d="M201.46,505.066c.006-.795.665-1.395,2.819-1.377s3.528.4,3.528,1.377-3.353.387-3.353.387Z" transform="translate(-201.46 -501.76)" fill="#3c5090"/>
      </g>
      <path id="Path_99134" data-name="Path 99134" d="M218.169,216.822c.943,1.462,3.33,10.7,3.427,12.323l-8.131,1.817c-.671-2.036-2.55-9.162-2.742-10.728-.7-5.616,5.235-6.848,7.445-3.412Z" transform="translate(-187.053 -195.922)" fill="#655eb1"/>
      <path id="Path_99135" data-name="Path 99135" d="M165.4,212.434c1.519-1.031,4.387-1.539,6.674-1.743.547-.05,1.058-.083,1.51-.1,1.9-.074,7.693.355,9.333,1.185,2.836,1.439-.015,9.3-.157,11.307s1.332,23.382,1.332,23.382-.529,5.167-11.047,3.324a9.731,9.731,0,0,1-4.541-2.647c-1.906-1.838-2.42.047-2.42.047L165.021,216.4c-.068-1.758-1.081-2.981.375-3.968Z" transform="translate(-154.607 -192.873)" fill="#655eb1"/>
      <path id="Path_99136" data-name="Path 99136" d="M210.725,166.056a1.546,1.546,0,0,0-.771-1.332,1.932,1.932,0,0,0,.26-1.752,1.687,1.687,0,1,0-2.978-1.081v.012a1.99,1.99,0,0,0,.5,3.581,1.535,1.535,0,0,0-.112.573,1.555,1.555,0,0,0,.13.62,1.55,1.55,0,1,0,1.985.821,1.547,1.547,0,0,0,.987-1.442Z" transform="translate(-183.99 -157.376)" fill="#242e47"/>
      <g id="Group_106074" data-name="Group 106074" transform="translate(4.044 20.683)">
        <path id="Path_99137" data-name="Path 99137" d="M145.413,240.667c1.85.762,3.25-1.114,4.972-4.771s5.126-6.748,5.658-10.926-3.947-6.142-6.131-2.136-5.241,12.468-5.457,15.186S145.413,240.667,145.413,240.667Z" transform="translate(-144.428 -220.646)" fill="#f7b690"/>
        <path id="Path_99138" data-name="Path 99138" d="M153.36,293.363c-1.852-4.724-3.022-12.976-4.754-15.319s-3.472-1.031-3.808.363,3.247,10.71,6.361,14.672,2.2.284,2.2.284Z" transform="translate(-144.674 -260.18)" fill="#f7b690"/>
      </g>
      <path id="Path_99139" data-name="Path 99139" d="M167.2,334.857c-.511-.352-.387-3-.807-4.358.26-1.3,1.678-.2,2.2-.095a1.075,1.075,0,0,1,.612.358s.263.3.623.709c0,0-2.053,3.782-2.624,3.389Z" transform="translate(-155.857 -276.917)" fill="#f7b690"/>
      <path id="Path_99140" data-name="Path 99140" d="M158.147,219.155c-.219,1.725-4.319,10.335-5.291,11.644l-7.4-3.832c.792-1.991,3.935-8.657,4.792-9.98,3.073-4.754,8.411-1.882,7.9,2.169Z" transform="translate(-141.111 -195.643)" fill="#655eb1"/>
      <path id="Path_99141" data-name="Path 99141" d="M182.719,214.72a2.409,2.409,0,0,1,.647-4.458,11.553,11.553,0,0,1,2.375-.352,16.548,16.548,0,0,1,2.816.363,2.407,2.407,0,0,1,.821,4.423,6.459,6.459,0,0,1-3.2.839,7.565,7.565,0,0,1-3.463-.812Z" transform="translate(-166.484 -192.399)" fill="#f7b690"/>
      <g id="Group_106075" data-name="Group 106075" transform="translate(16.462 2.826)">
        <path id="Path_99142" data-name="Path 99142" d="M194.4,176.73l-4.993,1V190.17H194.4Z" transform="translate(-188.538 -171.847)" fill="#f7b690"/>
        <path id="Path_99143" data-name="Path 99143" d="M204.058,197.578a2.753,2.753,0,0,1,.789-1.912c.8-1.046,1.894-2.476,1.808-7.25l.269-.006c.086,4.869-1.04,6.343-1.864,7.419a2.5,2.5,0,0,0-.733,1.743Z" transform="translate(-198.857 -180.077)" fill="#fff"/>
        <path id="Path_99144" data-name="Path 99144" d="M188.562,161.039c3.743-1.92,5.528-.331,6.284,2.757s.815,8.787-1.191,9.437-6.166-1.013-6.872-4.16-.337-6.952,1.776-8.036Z" transform="translate(-186.457 -160.204)" fill="#f7b690"/>
      </g>
      <path id="Path_99145" data-name="Path 99145" d="M189.025,153.686a1.912,1.912,0,0,0-1.95-2.222,1.4,1.4,0,0,0-2.248-.434,1.963,1.963,0,0,0-1.988.189,1.986,1.986,0,0,0-3.383,1.267,1.975,1.975,0,0,0-1.312,2.827A1.976,1.976,0,0,0,177.8,158a1.988,1.988,0,0,0,.872,3.368,1.955,1.955,0,0,0-.228.907,2,2,0,0,0,1.563,1.953,1.569,1.569,0,0,0,.789-.074,12.656,12.656,0,0,0-.331-2.984,4.155,4.155,0,0,1-.195-1.353c.024-.505.331-1.132,1.055-.86-.142-1.081-.248-2.576.993-2.913,1.619-.44,4.308,1.371,5.871,1.2,1.368-.151,1.666-2.9.839-3.557Z" transform="translate(-163.459 -150.64)" fill="#242e47"/>
      <path id="Path_99146" data-name="Path 99146" d="M194.426,193.51h-.269c0-1.279-.641-2.145-1.607-3.457-.121-.165-.248-.337-.381-.517-1.344-1.85-2-3.132-2.169-6.884l.269-.012c.168,3.678.8,4.931,2.115,6.736.13.18.257.352.378.517.966,1.306,1.66,2.248,1.66,3.616Z" transform="translate(-172.492 -173.186)" fill="#fff"/>
      <path id="Path_99147" data-name="Path 99147" d="M188.31,181.152a.632.632,0,1,1,.632.632A.633.633,0,0,1,188.31,181.152Z" transform="translate(-171.301 -171.692)" fill="#fff"/>
      <g id="Group_106079" data-name="Group 106079" transform="translate(15.833 20.333)">
        <path id="Path_99148" data-name="Path 99148" d="M191.928,248.624c-.059,0-.121,0-.183-.006a1.363,1.363,0,0,1-1.007-.455c-.555-.662-.411-1.935-.26-3.285a8.83,8.83,0,0,0-.024-3.353,4.964,4.964,0,0,1-.006-3.442,6.838,6.838,0,0,0,.225-.863,13.532,13.532,0,0,0,.041-2.777c-.024-.437-.044-.854-.044-1.22h.269c0,.36.021.771.044,1.208a13.732,13.732,0,0,1-.044,2.839,7.613,7.613,0,0,1-.23.9,4.742,4.742,0,0,0,.006,3.282,8.938,8.938,0,0,1,.035,3.466c-.145,1.291-.281,2.508.2,3.082a1.093,1.093,0,0,0,.818.36,1.148,1.148,0,0,0,.934-.242c.39-.4.293-1.368.171-2.588a14.4,14.4,0,0,1,.576-6.881c1.276-3.374,1.465-4.828.171-7.351-.4-.792-.062-2,.3-3.282a9.672,9.672,0,0,0,.555-3.433,37.024,37.024,0,0,1-.222-3.986c0-.307.009-.677.012-1.132h.269c0,.458-.009.827-.012,1.135a36.539,36.539,0,0,0,.222,3.956,10.146,10.146,0,0,1-.564,3.534c-.349,1.229-.674,2.39-.319,3.084,1.332,2.6,1.129,4.166-.16,7.569a14.188,14.188,0,0,0-.558,6.76c.136,1.338.233,2.3-.245,2.8a1.278,1.278,0,0,1-.963.331Z" transform="translate(-188.427 -219.46)" fill="#fff"/>
        <g id="Group_106078" data-name="Group 106078" transform="translate(0 4.213)">
          <path id="Path_99149" data-name="Path 99149" d="M200.061,249.88h0a.98.98,0,0,1-1.513-.012l-.068-.086a.987.987,0,0,1-.142-1.01l.293-1.031a1.583,1.583,0,0,0-.118-1.075l-.2-.458c-.21-.476-.035-1.205.334-1.306h0a.319.319,0,0,1,.393.225l1.205,3.817a.983.983,0,0,1-.186.931Z" transform="translate(-194.12 -241.59)" fill="#f7b690"/>
          <g id="Group_106077" data-name="Group 106077">
            <rect id="Rectangle_55630" data-name="Rectangle 55630" width="4.674" height="9.599" rx="2.337" fill="#fff"/>
            <g id="Group_106076" data-name="Group 106076" transform="translate(1.977 1.007)">
              <path id="Path_99150" data-name="Path 99150" d="M191.812,237.526a.4.4,0,1,1-.4-.4A.4.4,0,0,1,191.812,237.526Z" transform="translate(-191.02 -237.13)" fill="#6a749e"/>
              <path id="Path_99151" data-name="Path 99151" d="M192.067,237.949a.219.219,0,1,1-.219-.219A.218.218,0,0,1,192.067,237.949Z" transform="translate(-191.45 -237.553)" fill="#2d365d"/>
            </g>
          </g>
          <path id="Path_99152" data-name="Path 99152" d="M186.62,255.169a.427.427,0,0,0,.139-.585l-1.353-2.18a.427.427,0,0,0-.727.449l1.353,2.18A.429.429,0,0,0,186.62,255.169Z" transform="translate(-184.532 -246.742)" fill="#f7b690"/>
          <path id="Path_99153" data-name="Path 99153" d="M187.587,249.555h0a.427.427,0,0,0,.062-.6l-1.625-1.988a.43.43,0,0,0-.6-.062h0a.427.427,0,0,0-.062.6l1.625,1.988A.43.43,0,0,0,187.587,249.555Z" transform="translate(-184.99 -242.943)" fill="#f7b690"/>
          <path id="Path_99154" data-name="Path 99154" d="M188.647,246.486h0a.428.428,0,0,0,.1-.594l-1.5-2.083a.428.428,0,0,0-.594-.1h0a.428.428,0,0,0-.1.594l1.5,2.083A.428.428,0,0,0,188.647,246.486Z" transform="translate(-185.84 -240.704)" fill="#f7b690"/>
          <path id="Path_99155" data-name="Path 99155" d="M187.252,252.662h0a.428.428,0,0,0,.012-.6l-1.782-1.849a.428.428,0,0,0-.6-.012h0a.428.428,0,0,0-.012.6l1.782,1.85A.428.428,0,0,0,187.252,252.662Z" transform="translate(-184.626 -245.246)" fill="#f7b690"/>
          <path id="Path_99156" data-name="Path 99156" d="M192.534,255.729c-2.9-1.182-3.684-1.427-4.089-1.826s-.541-2.387.168-2.792.8-.851,1.587-.047c1.114,1.14,1.581.384,1.581.384l.756,4.278Z" transform="translate(-186.994 -245.624)" fill="#f7b690"/>
        </g>
      </g>
      <path id="Path_99157" data-name="Path 99157" d="M200.008,260.108c4.119,2.461,10.172,3.5,11.986,5.531s.024,3.616-1.442,3.776-7.88-3.433-10.89-7.064S200.008,260.108,200.008,260.108Z" transform="translate(-178.417 -227.582)" fill="#f7b690"/>
    </g>
    <g id="Group_106097" data-name="Group 106097" transform="translate(34.042 113.01)">
      <g id="Group_106086" data-name="Group 106086" transform="translate(0 0)">
        <path id="Path_99158" data-name="Path 99158" d="M99.825,231.213c1.566-.49.969-3.173.162-6.379s.074-6.184-1.755-9.091-6.169-3.1-5.472.567a66.242,66.242,0,0,0,4.579,12.973C98.815,231.9,99.825,231.213,99.825,231.213Z" transform="translate(-81.519 -196.675)" fill="#f09800"/>
        <path id="Path_99159" data-name="Path 99159" d="M99.431,187.56c.21.969.854,3.336,2.189,3.873a4.276,4.276,0,0,1-4.987,1.1c-.8-.292-1.167-2.242-1.643-3.947Z" transform="translate(-83.143 -178.357)" fill="#242e47"/>
        <g id="Group_106081" data-name="Group 106081" transform="translate(8.193 43.434)">
          <path id="Path_99160" data-name="Path 99160" d="M88.558,303.448c5.962-.482,6.976,5.782,5.584,16.947s-1.852,12.3-4.458,15.195c-.529.591-3.188.928-2.751-2.718.532-4.449-1.152-9.215-1.146-14.356.012-11.292-.251-14.823,2.771-15.068Z" transform="translate(-84.85 -303.422)" fill="#f7b690"/>
          <path id="Path_99161" data-name="Path 99161" d="M84.966,424.305c-.872-9.239-2.222-11.942-2.337-16.27-.168-6.4,2.115-12.2,4.251-12.175,3.141.041,2.863,1.717,2.863,2.313-.325,3.238-2.963,18.271-2.488,24.339C87.43,424.74,84.966,424.305,84.966,424.305Z" transform="translate(-82.62 -368.549)" fill="#f7b690"/>
        </g>
        <g id="Group_106082" data-name="Group 106082" transform="translate(0 41.319)">
          <path id="Path_99162" data-name="Path 99162" d="M67.009,296.267c5.977.236,6.234,6.574,3.516,17.493-1.545,6.21-2.653,11.375-3.932,14.681-.969,2.505-4.207,2.13-4.506-3.344-.225-4.122-.877-9.15-.292-13.966,1.362-11.209,2.18-14.985,5.212-14.867Z" transform="translate(-59.587 -296.261)" fill="#f7b690"/>
          <path id="Path_99163" data-name="Path 99163" d="M56.6,423.777c.171-6.018-1.616-13.145-1.708-17.473-.139-6.4,2.278-11.07,4.414-11.035,3.138.056,2.541,1.714,2.541,4.523-.34,3.238-3.407,13.13-2.632,24.271l-2.615-.29Z" transform="translate(-54.891 -366.018)" fill="#f7b690"/>
        </g>
        <path id="Path_99164" data-name="Path 99164" d="M56.98,314.268c1.956-8.952,2.118-20.74,2.532-22.915.886-4.077,2.795-4.178,3.344-6.7l3.3.165,5.732-.23s2.287,6.565,2.514,10.722c.437,2.133-.044,14.678-.4,19.364,0,0-12.042,1.332-17.024-.414Z" transform="translate(-56.363 -246.72)" fill="#242e47"/>
        <path id="Path_99165" data-name="Path 99165" d="M77.679,220.244c-.009-1-.863-6.621-2.21-7.286-1.873-.925-6.012-.638-6.012-.638a10.3,10.3,0,0,0-3.838,1.332c-2.547,1.462.8,9.779.8,9.779a45.192,45.192,0,0,1,1.256,10.329c2.632,3.17,9.038,2.018,9.005.006-.121-7.4,1.028-10.8,1-13.526Z" transform="translate(-61.775 -195.772)" fill="#f7b690"/>
        <g id="Group_106083" data-name="Group 106083" transform="translate(9.873 93.985)">
          <path id="Path_99166" data-name="Path 99166" d="M91.882,474.745l-1.7-.225.165,5.185-.165.907,1.164,1.61,1.294.535,2.142,2.219,1.539-1.161-1.678-1.793-2-3.8Z" transform="translate(-89.627 -474.52)" fill="#f7b690"/>
          <path id="Path_99167" data-name="Path 99167" d="M89.431,497.661a5.989,5.989,0,0,0-.225-1.912c-.266-.662-1.016-1.439-.883-2.059.272-1.294.7-1.61.7-1.61a10.694,10.694,0,0,0,1.365,2.378c.115.109.836.505,1.533,1.058.547.431,1.058,1.049,1.4,1.12.954.2,1.433-.937,1.533-.824.833.934,1.678.647,2.585,1.126.281.148.263.6.251.724H93.168A5.581,5.581,0,0,0,91.5,495.54c-1.374-1.176-1.956-.848-1.956-.615,0,.189.192,2.012.269,2.736h-.384Z" transform="translate(-88.307 -486.892)" fill="#242e47"/>
        </g>
        <g id="Group_106084" data-name="Group 106084" transform="translate(1.033 93.985)">
          <path id="Path_99168" data-name="Path 99168" d="M61.959,474.745l-1.7-.225.165,5.185-.165.907,1.164,1.61,1.294.535,2.142,2.219,1.539-1.161-1.678-1.793-2-3.8Z" transform="translate(-59.707 -474.52)" fill="#f7b690"/>
          <path id="Path_99169" data-name="Path 99169" d="M59.511,497.661a5.989,5.989,0,0,0-.225-1.912c-.266-.662-1.016-1.439-.883-2.059.275-1.294.7-1.61.7-1.61a10.694,10.694,0,0,0,1.365,2.378c.115.109.836.505,1.533,1.058.547.431,1.058,1.049,1.4,1.12.951.2,1.433-.937,1.533-.824.833.934,1.678.647,2.585,1.126.281.148.263.6.251.724H63.248a5.581,5.581,0,0,0-1.669-2.121c-1.374-1.176-1.956-.848-1.956-.615,0,.189.192,2.012.269,2.736h-.384Z" transform="translate(-58.387 -486.892)" fill="#242e47"/>
        </g>
        <path id="Path_99170" data-name="Path 99170" d="M70.953,216.975c1.1,1.941,2.142,3.271,2.582,5.067,1.4,5.755-.281,11.106-.23,13.369.068,2.966-6.024,3.888-7.779,3.179s-2.074-1.631-2.074-1.631a9.988,9.988,0,0,0,2.136-6.154c-.23-3.265-2.3-6.662-2.869-10.976s-1.182-4.39.115-6.311c1.229-1.817,5.853-2.2,5.853-2.2s-.284,1.152,2.269,5.652Z" transform="translate(-59.945 -195.097)" fill="#f09800"/>
        <path id="Path_99171" data-name="Path 99171" d="M91.05,210.93c3.835,1.359,3.359,4.813,3.223,8.893-.074,2.2-.233,8.033-.632,10.547-.325,2.036-.733,4.269-.05,5.563s4.107,1.56,3.864.629a30.006,30.006,0,0,1-1.291-4.408c-.3-3.132-.428-6.671.547-9.478s1-4.381.086-6.284c-.694-1.454-.875-3.764-1.968-4.426A13.93,13.93,0,0,0,91.05,210.93Z" transform="translate(-80.367 -194.822)" fill="#f09800"/>
        <path id="Path_99172" data-name="Path 99172" d="M64.745,235.473c1.814-.207,2.112-3.758,1.8-7.339s1.64-7.026.142-10.494-5.212-2.3-5.1,1.746-.171,11.443.9,13.647,2.254,2.443,2.254,2.443Z" transform="translate(-59.605 -198.105)" fill="#f09800"/>
        <path id="Path_99173" data-name="Path 99173" d="M82.984,211.29c-1.758.115.482,5.448.482,5.448l1.282-.5-.954,1.019a17.034,17.034,0,0,1,3.4,3.853c.892,1.737.875,5.6.875,5.6s.851-5.126-.762-8.048-4.018-4.13-4.287-6.485a3.938,3.938,0,0,1-.033-.886Z" transform="translate(-74.21 -195.076)" fill="#fff"/>
        <path id="Path_99174" data-name="Path 99174" d="M95.033,211.6c1.92.189,3.09,4.039,3.09,4.039l-1.067.2,1.022.52s-.567,3.043-.925,5.283a8.855,8.855,0,0,0-.006,2.833,13.193,13.193,0,0,1-.455-5.557c.2-1.909.434-2.9-.024-4.591-.1-.355-.363-1.013-.449-1.3-.411-1.412-.9-1.471-1.191-1.421Z" transform="translate(-83.171 -195.288)" fill="#fff"/>
        <g id="Group_106085" data-name="Group 106085" transform="translate(7.002 1.908)">
          <path id="Path_99175" data-name="Path 99175" d="M84.931,180.02l4.523,1.3-.747,9.153a2.3,2.3,0,0,1-2.488,2.109h0c-1.27-.1-2.2-1.746-2.1-3.016l.812-9.543Z" transform="translate(-82.482 -174.952)" fill="#f7b690"/>
          <path id="Path_99176" data-name="Path 99176" d="M81.265,173.295c3.581,2.24,6.653,2.133,6.946.875.257-1.111.213-2.759.3-3.046s.523-.31.561-.789-.81-1.474-1-2.434-.1-4.065-2.18-4.618c-1.5-.4-4.689-1.087-5.974,1.214s-1.7,4.907-.951,5.835,2.3,2.966,2.3,2.966Z" transform="translate(-78.591 -162.868)" fill="#f7b690"/>
        </g>
        <path id="Path_99177" data-name="Path 99177" d="M78.122,160.924c-1.262,1.034-5.445,2.618-3.578,7.085a5.621,5.621,0,0,0,1.932,2.423c-.886,1.622-4.4,1.628-5.534,1.058-1.442-.724-4.423-2.833-2.107-10.267,1.028-3.3,4.246-4.8,7.28-4.813C79.792,156.4,81.434,158.206,78.122,160.924Z" transform="translate(-64.116 -156.41)" fill="#242e47"/>
        <path id="Path_99178" data-name="Path 99178" d="M94.287,164.043c.219,2.624-4.99,5.637-4.952,7.41a1.93,1.93,0,0,0,1.974,2.047s-2.21.47-2.372-2.18c-.115-1.829,1.519-3.581.824-4.727s4.526-2.553,4.526-2.553Z" transform="translate(-78.873 -161.786)" fill="#242e47"/>
      </g>
      <g id="Group_106093" data-name="Group 106093" transform="translate(16.04 27.961)">
        <g id="Group_106092" data-name="Group 106092">
          <path id="Path_99179" data-name="Path 99179" d="M119.79,267.326c-2.588-2.96-5.164-6.346-6.993-7.259-2.429-1.208-3.894.62-3.572,1.894.467,1.847,4.594,4.8,8.468,7.6Z" transform="translate(-109.181 -257.124)" fill="#f09800"/>
          <path id="Path_99180" data-name="Path 99180" d="M140.12,286.95v2.033c.984.709,1.888,1.344,2.609,1.849,3.853,2.691,1.129-1.412,1.129-1.412-.712-.771-1.451-1.61-2.2-2.467h-1.533Z" transform="translate(-130.979 -276.343)" fill="#f7b690"/>
          <g id="Group_106087" data-name="Group 106087" transform="translate(9.182 11.384)">
            <path id="Path_99181" data-name="Path 99181" d="M163.424,295.859a.574.574,0,0,1,.591.609,3.756,3.756,0,0,0,.006.576l.053.65a.3.3,0,0,1-.266.337.7.7,0,0,1-.733-.626l-.177-.8a.572.572,0,0,1,.529-.742h0Z" transform="translate(-156.191 -294.004)" fill="#f7b690"/>
            <path id="Path_99182" data-name="Path 99182" d="M161.781,295.057h0a.5.5,0,0,1-.7.136l-.951-.653a.5.5,0,0,1-.136-.7h0a.5.5,0,0,1,.7-.136l.954.653a.507.507,0,0,1,.136.7Z" transform="translate(-154.102 -292.424)" fill="#f7b690"/>
            <path id="Path_99183" data-name="Path 99183" d="M158.195,293.872h0a.455.455,0,0,1-.34.547l-1.016.233a.455.455,0,0,1-.547-.34h0a.455.455,0,0,1,.34-.547l1.016-.233A.455.455,0,0,1,158.195,293.872Z" transform="translate(-151.547 -292.356)" fill="#f7b690"/>
            <path id="Path_99184" data-name="Path 99184" d="M152.4,294.4l-.251.044-1.711,2.461h0a3.926,3.926,0,0,0,.774.777h0l.05.035,1.075.192a9.784,9.784,0,0,0,3.037-.393c.588-.127-.609-1.965-1.436-2.431-.476-.269-1.081-.609-1.081-.609A.67.67,0,0,0,152.4,294.4Z" transform="translate(-147.432 -292.969)" fill="#f7b690"/>
            <path id="Path_99185" data-name="Path 99185" d="M140.845,289.58l3.6,1.619c.038-.006.753-.177.8-.183a.692.692,0,0,1,.44.08l1.123.635c-.387.8-1.51.632-1.882.99.653.455-.044,2.05-.839,1.616l-.05-.035h0a3.926,3.926,0,0,1-.774-.777l-3-3.126.582-.815Z" transform="translate(-140.26 -289.58)" fill="#f7b690"/>
          </g>
          <g id="Group_106091" data-name="Group 106091" transform="translate(1.049)">
            <path id="Path_99186" data-name="Path 99186" d="M123.511,276.1,113.3,268.97l9.652-13.78,10.211,7.129Z" transform="translate(-113.132 -253.967)" fill="#006269"/>
            <path id="Path_99187" data-name="Path 99187" d="M123.088,274.309,112.88,267.18l9.652-13.78,10.208,7.129Z" transform="translate(-112.836 -252.706)" fill="#f5a714"/>
            <path id="Path_99188" data-name="Path 99188" d="M122.941,271.959,112.73,264.83l9.652-13.78,10.211,7.129Z" transform="translate(-112.73 -251.05)" fill="#f9fdff"/>
            <g id="Group_106088" data-name="Group 106088" transform="translate(6.095 5.241)">
              <path id="Path_99189" data-name="Path 99189" d="M134.237,275.069l-.877-.615,2.978-4.3.877.612Z" transform="translate(-133.36 -269.748)" fill="#006269" opacity="0.53"/>
              <path id="Path_99190" data-name="Path 99190" d="M134.237,276.866l-.877-.615,2.458-3.551.877.612Z" transform="translate(-133.36 -271.545)" fill="#fff" opacity="0.22"/>
              <path id="Path_99191" data-name="Path 99191" d="M134.237,281.128l-.877-.615,1.22-1.764.88.612Z" transform="translate(-133.36 -275.807)" fill="#f5a714"/>
              <path id="Path_99192" data-name="Path 99192" d="M149.857,284.842l-.877-.612,3.306-4.78.88.612Z" transform="translate(-144.365 -276.301)" fill="#006269" opacity="0.53"/>
              <path id="Path_99193" data-name="Path 99193" d="M149.857,286.836l-.877-.612,2.727-3.944.88.615Z" transform="translate(-144.365 -278.294)" fill="#fff" opacity="0.22"/>
              <path id="Path_99194" data-name="Path 99194" d="M149.857,291.563l-.877-.612,1.356-1.962.877.615Z" transform="translate(-144.365 -283.022)" fill="#f5a714"/>
              <path id="Path_99195" data-name="Path 99195" d="M145.867,284.345l-.877-.615,2.644-3.82.877.615Z" transform="translate(-141.554 -276.625)" fill="#006269" opacity="0.53"/>
              <path id="Path_99196" data-name="Path 99196" d="M145.867,285.944l-.877-.615,2.18-3.149.877.612Z" transform="translate(-141.554 -278.224)" fill="#fff" opacity="0.22"/>
              <path id="Path_99197" data-name="Path 99197" d="M145.867,289.72l-.877-.615,1.084-1.566.877.615Z" transform="translate(-141.554 -282)" fill="#f5a714"/>
              <path id="Path_99198" data-name="Path 99198" d="M141.967,283.517l-.877-.612,2.092-3.025.877.612Z" transform="translate(-138.806 -276.603)" fill="#006269" opacity="0.53"/>
              <path id="Path_99199" data-name="Path 99199" d="M141.967,284.2l-.877-.612,1.891-2.739.877.615Z" transform="translate(-138.806 -277.287)" fill="#fff" opacity="0.22"/>
              <path id="Path_99200" data-name="Path 99200" d="M141.967,288l-.877-.612.792-1.146.877.612Z" transform="translate(-138.806 -281.084)" fill="#f5a714"/>
              <path id="Path_99201" data-name="Path 99201" d="M138.147,274.915l-.877-.612,3.811-5.513.88.612Z" transform="translate(-136.115 -268.79)" fill="#006269" opacity="0.53"/>
              <path id="Path_99202" data-name="Path 99202" d="M138.147,276.422l-.877-.612,3.374-4.881.877.615Z" transform="translate(-136.115 -270.298)" fill="#fff" opacity="0.22"/>
              <path id="Path_99203" data-name="Path 99203" d="M138.147,282.841l-.877-.612,1.513-2.189.877.612Z" transform="translate(-136.115 -276.716)" fill="#f5a714"/>
            </g>
            <path id="Path_99204" data-name="Path 99204" d="M155.048,265.654l-4.308-3.008.363-.526,4.308,3.011Z" transform="translate(-139.51 -258.849)" fill="#006269" opacity="0.53"/>
            <g id="Group_106090" data-name="Group 106090" transform="translate(4.665 10.586)" opacity="0.38">
              <g id="Group_106089" data-name="Group 106089">
                <path id="Path_99205" data-name="Path 99205" d="M133.77,288.732l-2.39-1.669.13-.183,2.387,1.666Z" transform="translate(-130.535 -286.88)" fill="#006269"/>
                <path id="Path_99206" data-name="Path 99206" d="M132.489,289.882l-2.059-1.439.127-.183,2.059,1.436Z" transform="translate(-129.866 -287.852)" fill="#006269"/>
                <path id="Path_99207" data-name="Path 99207" d="M131.99,291.584l-2.52-1.761.13-.183,2.517,1.758Z" transform="translate(-129.189 -288.825)" fill="#006269"/>
                <path id="Path_99208" data-name="Path 99208" d="M129.861,292.14l-1.341-.937.127-.183,1.341.934Z" transform="translate(-128.52 -289.797)" fill="#006269"/>
                <path id="Path_99209" data-name="Path 99209" d="M143.91,295.812l-2.39-1.669.13-.183,2.387,1.666Z" transform="translate(-137.679 -291.868)" fill="#006269"/>
                <path id="Path_99210" data-name="Path 99210" d="M142.629,296.962l-2.059-1.439.127-.183,2.059,1.436Z" transform="translate(-137.01 -292.841)" fill="#006269"/>
                <path id="Path_99211" data-name="Path 99211" d="M142.13,298.664l-2.52-1.761.13-.183,2.517,1.758Z" transform="translate(-136.333 -293.813)" fill="#006269"/>
                <path id="Path_99212" data-name="Path 99212" d="M140,299.22l-1.341-.937.127-.183,1.341.934Z" transform="translate(-135.664 -294.785)" fill="#006269"/>
              </g>
            </g>
          </g>
          <path id="Path_99213" data-name="Path 99213" d="M158.145,306.9h0a.445.445,0,0,1-.617.109l-.747-.526a.445.445,0,0,1-.109-.617h0a.445.445,0,0,1,.617-.109l.747.526A.445.445,0,0,1,158.145,306.9Z" transform="translate(-142.584 -289.54)" fill="#f7b690"/>
          <path id="Path_99214" data-name="Path 99214" d="M161.783,301.684h0a.5.5,0,0,1-.561.425l-1.808-.225a.5.5,0,0,1-.425-.561h0a.5.5,0,0,1,.561-.425l1.808.227a.5.5,0,0,1,.425.561Z" transform="translate(-144.269 -286.167)" fill="#f7b690"/>
          <path id="Path_99215" data-name="Path 99215" d="M159.622,304.788h0a.455.455,0,0,1-.609.213l-1.489-.7a.455.455,0,0,1-.213-.609h0a.455.455,0,0,1,.609-.213l1.489.7A.455.455,0,0,1,159.622,304.788Z" transform="translate(-143.059 -287.959)" fill="#f7b690"/>
          <path id="Path_99216" data-name="Path 99216" d="M162.581,298.592h0a.47.47,0,0,1-.529.4l-1.5-.2a.47.47,0,0,1-.4-.529h0a.47.47,0,0,1,.529-.4l1.5.2a.47.47,0,0,1,.4.529Z" transform="translate(-145.088 -284.026)" fill="#f7b690"/>
        </g>
        <rect id="Rectangle_55631" data-name="Rectangle 55631" width="5.888" height="1.126" transform="translate(13.628 1.337) rotate(34.93)" fill="#006269"/>
        <path id="Path_99217" data-name="Path 99217" d="M159.05,258.732a1.578,1.578,0,0,1,2.325,1.622Z" transform="translate(-144.316 -256.303)" fill="#006269"/>
      </g>
      <g id="Group_106096" data-name="Group 106096" transform="translate(3.615 33.474)">
        <path id="Path_99218" data-name="Path 99218" d="M103.348,285.473c2.2,1.161,4.488,2.52,6.24,3.436,4.16,2.174.1,1.752.1,1.752-1.424-.39-3-.747-4.576-1.1,0,0-1.563-3.448-1.835-4.054l.071-.032Z" transform="translate(-92.599 -280.814)" fill="#f7b690"/>
        <path id="Path_99219" data-name="Path 99219" d="M80.645,279.179c-3.956-.913-10.74-4.541-12.45-5.788-2.189-1.6-.535-3.365.742-3.664,1.545-.363,9.389,4.89,12.565,6.642Z" transform="translate(-67.128 -269.709)" fill="#f09800"/>
        <g id="Group_106095" data-name="Group 106095" transform="translate(16.268 8.426)">
          <g id="Group_106094" data-name="Group 106094">
            <path id="Path_99220" data-name="Path 99220" d="M129.82,313.017h0a.366.366,0,0,1,.357-.366l2.177-.021a.366.366,0,0,1,.366.358h0a.366.366,0,0,1-.358.366l-2.177.021A.366.366,0,0,1,129.82,313.017Z" transform="translate(-127.565 -308.375)" fill="#f7b690"/>
            <path id="Path_99221" data-name="Path 99221" d="M131.018,313.714h0a.362.362,0,0,1,.476-.186l1.994.883a.364.364,0,0,1,.186.479h0a.362.362,0,0,1-.476.186l-1.994-.883A.364.364,0,0,1,131.018,313.714Z" transform="translate(-128.388 -308.986)" fill="#f7b690"/>
            <path id="Path_99222" data-name="Path 99222" d="M122.269,299.565l1.267,2.683a.917.917,0,0,0,.18.257l2.739,2.777a.163.163,0,0,0,.242-.015h0a.657.657,0,0,0,0-.81l-1.569-2.006a1.68,1.68,0,0,1-.352-.872l-.124-1.2s.487-1.77-1.081-2.107c-.987-.21-1.279.366-1.365.756a.837.837,0,0,0,.065.535Z" transform="translate(-122.189 -298.229)" fill="#f7b690"/>
          </g>
          <path id="Path_99223" data-name="Path 99223" d="M125.586,299.085h0a.886.886,0,0,0-.632,1.211l.038.092a.889.889,0,0,0,.745.541l.945.2a1.427,1.427,0,0,1,.807.55l.281.352c.29.369.945.538,1.182.287h0a.289.289,0,0,0-.012-.408l-2.532-2.579a.891.891,0,0,0-.821-.248Z" transform="translate(-124.088 -298.818)" fill="#f7b690"/>
        </g>
      </g>
    </g>
    <g id="Group_106125" data-name="Group 106125" transform="translate(48.049 111.312)">
      <g id="Group_106123" data-name="Group 106123" transform="translate(0 0)">
        <g id="Group_106106" data-name="Group 106106" transform="translate(42.291)">
          <g id="Group_106100" data-name="Group 106100" transform="translate(0 17.746)">
            <path id="Path_99224" data-name="Path 99224" d="M322.519,225c-.981-1.879.869-3.534,4.565-5.7s6.94-7.522,11.3-8.476,6.547,5.058,2.526,7.738-12.657,6.707-15.505,7.191-2.884-.759-2.884-.759Z" transform="translate(-299.563 -210.726)" fill="#4b43a5"/>
            <path id="Path_99225" data-name="Path 99225" d="M280.453,256.908a36.877,36.877,0,0,1-8.252.355c-5.209-.585-1.454-1.787-1.454-1.787a93.511,93.511,0,0,0,9.705-2.795Z" transform="translate(-262.348 -240.285)" fill="#f7b690"/>
            <path id="Path_99226" data-name="Path 99226" d="M284.23,249.846c4.857-1.359,10.754-4.311,13.221-4.11,3.019.245,2.674,3.167,1.625,4.225-.916.925-8.831,2.517-14.285,2.511l-.561-2.627Z" transform="translate(-272.77 -235.386)" fill="#4b43a5"/>
            <g id="Group_106099" data-name="Group 106099" transform="translate(0 13.438)">
              <path id="Path_99227" data-name="Path 99227" d="M253.946,257.214h0a.5.5,0,0,1,.035.7l-2.009,2.207a.5.5,0,0,1-.7.033h0a.5.5,0,0,1-.035-.7l2.009-2.207A.5.5,0,0,1,253.946,257.214Z" transform="translate(-249.435 -256.827)" fill="#f7b690"/>
              <path id="Path_99228" data-name="Path 99228" d="M250.417,257.8h0a.5.5,0,0,1-.257.65l-2.745,1.182a.5.5,0,0,1-.653-.26h0a.5.5,0,0,1,.257-.65l2.745-1.182A.5.5,0,0,1,250.417,257.8Z" transform="translate(-246.343 -257.12)" fill="#f7b690"/>
              <g id="Group_106098" data-name="Group 106098">
                <path id="Path_99229" data-name="Path 99229" d="M263.3,262.88h0a1.141,1.141,0,0,1-.281,1.737l-.109.065a1.146,1.146,0,0,1-1.185-.018l-1.132-.52a1.833,1.833,0,0,0-1.256-.056l-.561.145c-.585.157-1.392-.174-1.442-.617h0a.372.372,0,0,1,.328-.411l4.6-.706a1.154,1.154,0,0,1,1.04.378Z" transform="translate(-253.818 -260.631)" fill="#f7b690"/>
                <path id="Path_99230" data-name="Path 99230" d="M255.3,257.491l-3.876-1.223a1.288,1.288,0,0,0-.425-.059l-5.342.165a.219.219,0,0,0-.21.254h0a.9.9,0,0,0,.812.753l3.477.292a2.325,2.325,0,0,1,1.2.458l1.324.993s1.324,2.139,3.123.875c1.132-.795.821-1.625.511-2.074a1.127,1.127,0,0,0-.6-.431Z" transform="translate(-245.441 -256.209)" fill="#f7b690"/>
              </g>
            </g>
          </g>
          <g id="Group_106105" data-name="Group 106105" transform="translate(27.131)">
            <g id="Group_106101" data-name="Group 106101" transform="translate(37.861 89.733)">
              <path id="Path_99231" data-name="Path 99231" d="M465.42,457.057l3.59,3.17L469,463.551l3.516-4.361-2-.934-3.714-3.876Z" transform="translate(-465.42 -454.38)" fill="#f7b690"/>
              <path id="Path_99232" data-name="Path 99232" d="M477.01,469.725l-2.9-1.545s.6.662-.3,1.867a2.341,2.341,0,0,1-1.926,1c-.044.139-2.372,6.29-2.372,6.29l.916,1.256,6.169-7.268.408-1.6Z" transform="translate(-468.309 -464.103)" fill="#0d3e60"/>
              <rect id="Rectangle_55632" data-name="Rectangle 55632" width="13.02" height="0.759" transform="matrix(0.596, -0.803, 0.803, 0.596, 0.944, 16.097)" fill="#2d417e"/>
              <path id="Path_99233" data-name="Path 99233" d="M467.3,502.008c-1.371-1.019.266-2.848.266-2.848l1.522.437Z" transform="translate(-466.363 -485.93)" fill="#0d3e60"/>
              <path id="Path_99234" data-name="Path 99234" d="M472.16,490.354l.694.248.106-.378-.694-.154Z" transform="translate(-470.169 -479.525)" fill="#a8dce0"/>
              <path id="Path_99235" data-name="Path 99235" d="M473.44,486.734l.7.245.1-.378-.694-.151Z" transform="translate(-471.071 -476.975)" fill="#a8dce0"/>
              <path id="Path_99236" data-name="Path 99236" d="M474.72,483.1l.7.248.106-.378-.7-.154Z" transform="translate(-471.972 -474.418)" fill="#a8dce0"/>
              <path id="Path_99237" data-name="Path 99237" d="M476,479.484l.7.248.106-.378-.694-.154Z" transform="translate(-472.874 -471.867)" fill="#a8dce0"/>
            </g>
            <g id="Group_106102" data-name="Group 106102" transform="translate(19.75 96.268)">
              <path id="Path_99238" data-name="Path 99238" d="M430.542,477.8l.21,3.8-2.641,2.021,5.6.13-.479-2.154.322-5.1Z" transform="translate(-421.022 -476.5)" fill="#f7b690"/>
              <path id="Path_99239" data-name="Path 99239" d="M421.875,499.259l-.541-3.235s-.16.878-1.66.9a2.333,2.333,0,0,1-1.965-.922c-.139.047-6.432,1.953-6.432,1.953l-.437,1.489,9.519.461,1.513-.65Z" transform="translate(-408.854 -490.242)" fill="#0d3e60"/>
              <rect id="Rectangle_55633" data-name="Rectangle 55633" width="13.02" height="0.759" transform="translate(0.005 9.231) rotate(-0.98)" fill="#2d417e"/>
              <path id="Path_99240" data-name="Path 99240" d="M404.119,504.121c-.03-1.708,2.423-1.525,2.423-1.525l.579,1.474Z" transform="translate(-404.119 -494.882)" fill="#0d3e60"/>
              <path id="Path_99241" data-name="Path 99241" d="M420.38,499.539l.227.7.363-.148-.3-.644Z" transform="translate(-415.576 -492.669)" fill="#a8dce0"/>
              <path id="Path_99242" data-name="Path 99242" d="M424.03,498.349l.23.7.363-.148-.3-.644Z" transform="translate(-418.147 -491.831)" fill="#a8dce0"/>
              <path id="Path_99243" data-name="Path 99243" d="M427.69,497.159l.227.7.363-.148-.3-.644Z" transform="translate(-420.726 -490.993)" fill="#a8dce0"/>
              <path id="Path_99244" data-name="Path 99244" d="M431.34,495.966l.23.7.363-.145-.3-.644Z" transform="translate(-423.298 -490.154)" fill="#a8dce0"/>
            </g>
            <path id="Path_99245" data-name="Path 99245" d="M404.644,398.5c4.311-4.565,9.951.455,12.453,3.8s10.341,14.273,10.341,14.273l-2.627,2.588s-17.236-14.8-19.08-16.976S404.644,398.5,404.644,398.5Z" transform="translate(-384.63 -323.989)" fill="#242e47"/>
            <path id="Path_99246" data-name="Path 99246" d="M407.465,288.18c-10.781.854-5.938,28.8-5.844,33.406s3.392,8.849,6.789-.163,6.875-23.556,3.664-28.268-4.609-4.975-4.609-4.975" transform="translate(-381.788 -247.55)" fill="#242e47"/>
            <g id="Group_106103" data-name="Group 106103" transform="translate(23.403 41.12)">
              <path id="Path_99247" data-name="Path 99247" d="M422.229,289.843c-10.66,1.823-3.318,29.223-2.81,33.8s4.178,8.506,6.745-.774,4.724-24.082,1.1-28.484-5.037-4.541-5.037-4.541" transform="translate(-416.483 -289.84)" fill="#2a344f"/>
              <path id="Path_99248" data-name="Path 99248" d="M429.213,395.688c6.269-.31,6.866,7.212,6.361,11.357s-2.414,17.461-2.414,17.461l-3.687.05s-2.2-22.614-2.027-25.459,1.764-3.409,1.764-3.409Z" transform="translate(-424.201 -364.409)" fill="#2a344f"/>
            </g>
            <path id="Path_99249" data-name="Path 99249" d="M363.94,209.425c-.733,5.176,12.468,24.094,12.468,24.094a6.364,6.364,0,0,0,6,.768c.393-.154.771-.322,1.132-.5a18.15,18.15,0,0,0,4.509-3.1l-6.9-23.922c-1-3.87-6.515-3.8-9.227-3.362-3.486.561-7.687,3.909-7.986,6.018Z" transform="translate(-356.04 -187.677)" fill="#655eb1"/>
            <path id="Path_99250" data-name="Path 99250" d="M378.845,203.9a5.776,5.776,0,0,0-5.052,4.367c-.414,1.43,1.327,2.18,2.807,1.226a4.951,4.951,0,0,0,2.245-5.59Z" transform="translate(-362.959 -188.171)" fill="#f7b690"/>
            <path id="Path_99251" data-name="Path 99251" d="M469.787,457.65l1.126,1.714-3.51,3.158-1.982-1.761Z" transform="translate(-427.559 -366.951)" fill="#242e47"/>
            <path id="Path_99252" data-name="Path 99252" d="M437.483,484.541l-.4,2.349-4.721-.18.059-2.709Z" transform="translate(-404.266 -385.516)" fill="#153663"/>
            <g id="Group_106104" data-name="Group 106104" transform="translate(1.913 1.172)">
              <path id="Path_99253" data-name="Path 99253" d="M358.656,177.706h0a2.6,2.6,0,0,1,3.167.9l4.686,6.739a2.594,2.594,0,0,1-.65,3.613h0a2.594,2.594,0,0,1-3.613-.65l-4.686-6.739a2.6,2.6,0,0,1,1.1-3.864Z" transform="translate(-353.15 -170.735)" fill="#f7b690"/>
              <path id="Path_99254" data-name="Path 99254" d="M352.3,155.337c-5.262-2.78-8.979,3.265-8.512,6.763s2.718,9.407,5.055,9.265a5.61,5.61,0,0,0,4.833-6.29c-.547-3.534,2.8-7.534-1.377-9.738Z" transform="translate(-343.746 -154.627)" fill="#f7b690"/>
            </g>
            <path id="Path_99255" data-name="Path 99255" d="M357.586,166.607c-2.059,1.569-.479,3.158-.479,3.158a8.776,8.776,0,0,1,1.483,2.121c.1.222.629-.109.9.021.331.163-.437-2.4,1.061-2.39s1.329,2.8,1.329,2.8c.434.006.739-.012.739-.012s1.634-3.643.594-5.026c-1.61-2.136-5.625-.68-5.625-.68Z" transform="translate(-350.839 -161.552)" fill="#242e47"/>
            <path id="Path_99256" data-name="Path 99256" d="M337.475,154.108a2.12,2.12,0,0,1,1.214-.056,3.541,3.541,0,0,1,1.312.461,11.592,11.592,0,0,1-1.087-.845,4.451,4.451,0,0,0,1.7-.16s-.644-.1-1.161-.174a13.322,13.322,0,0,0,1.575-.422s-.579-.006-.9-.035a3,3,0,0,1,1.971-.349,6.247,6.247,0,0,0-.981-.408c1-.165,2.618-.617,2.618-.617a8.216,8.216,0,0,1-1.273-.012,5.081,5.081,0,0,1,4.668-.461c4.157,1.59,2.659,5.767,2.659,5.767-.213-2.4-9.156,1.7-10.6,1.536-2-.227-2.163-3.253-1.722-4.219Z" transform="translate(-337.272 -150.661)" fill="#242e47"/>
          </g>
          <path id="Path_99257" data-name="Path 99257" d="M403.133,227.771c-2.039.254-2.916-1.982-3.631-6.068s-3.862-7.41-3.256-11.691,6.314-5.079,7.389-.52,1.681,13.165,1.161,15.919-1.663,2.361-1.663,2.361Z" transform="translate(-351.637 -189.945)" fill="#4b43a5"/>
        </g>
        <g id="Group_106120" data-name="Group 106120" transform="translate(34.715 30.78)">
          <g id="Group_106107" data-name="Group 106107" transform="translate(20.558 2.822)">
            <path id="Path_99258" data-name="Path 99258" d="M347.86,338.464l-.771-2.012a31.86,31.86,0,0,1-.5-21.414l1.126-3.4h16.4l-1.126,3.4a31.86,31.86,0,0,0,.5,21.414l.771,2.012a4.54,4.54,0,0,1-4.24,6.166h-16.4A4.54,4.54,0,0,0,347.86,338.464Z" transform="translate(-327.596 -297.681)" fill="#0d3e60"/>
            <path id="Path_99259" data-name="Path 99259" d="M404.876,447.919a.2.2,0,0,0,.059-.006.339.339,0,0,0,.275-.393l-4.384-25.086a.339.339,0,1,0-.668.118l4.384,25.086a.339.339,0,0,0,.334.281Z" transform="translate(-367.426 -375.544)" fill="#0d3e60"/>
            <path id="Path_99260" data-name="Path 99260" d="M331.162,447.919a.339.339,0,0,0,.334-.281l4.384-25.086a.339.339,0,1,0-.668-.118l-4.384,25.086a.341.341,0,0,0,.275.393A.4.4,0,0,0,331.162,447.919Z" transform="translate(-318.579 -375.544)" fill="#0d3e60"/>
            <path id="Path_99261" data-name="Path 99261" d="M363.436,447.919a.2.2,0,0,0,.059-.006.339.339,0,0,0,.275-.393l-4.384-25.086a.339.339,0,1,0-.668.118l4.384,25.086a.339.339,0,0,0,.334.281Z" transform="translate(-338.229 -375.544)" fill="#0d3e60"/>
            <path id="Path_99262" data-name="Path 99262" d="M289.722,447.919a.339.339,0,0,0,.334-.281l4.384-25.086a.339.339,0,1,0-.668-.118l-4.384,25.086a.341.341,0,0,0,.275.393A.4.4,0,0,0,289.722,447.919Z" transform="translate(-289.383 -375.544)" fill="#6abecb"/>
            <path id="Path_99263" data-name="Path 99263" d="M396.69,281.51c1.389-5.091,1.817-13.079,3.344-15.7s4.37-1.081,4.872.322-2.169,11.431-4.946,15.874S396.69,281.51,396.69,281.51Z" transform="translate(-364.986 -264.392)" fill="#4b43a5"/>
          </g>
          <g id="Group_106119" data-name="Group 106119">
            <g id="Group_106108" data-name="Group 106108" transform="translate(13.74 10.751)">
              <path id="Path_99264" data-name="Path 99264" d="M312.864,308.845c-1.533-1.341-.455-3.463,2.1-6.686s2.94-7.744,6.506-10.116,8.27.839,5.608,4.638-8.985,10.412-11.366,11.839S312.864,308.845,312.864,308.845Z" transform="translate(-298.61 -291.23)" fill="#ada8e0"/>
              <path id="Path_99265" data-name="Path 99265" d="M267.63,347.829c4.7-1.9,10.01-6.656,12.9-7.011s3.129,1.808,2.352,3.008-8.943,5.043-13.954,5.507-1.291-1.5-1.291-1.5Z" transform="translate(-266.305 -326.14)" fill="#f7b690"/>
              <path id="Path_99266" data-name="Path 99266" d="M279.44,345.422c3.788-2.092,8.29-5.643,10.311-5.891,2.887-.354,3.492,2.234,2.712,3.433-.638.984-6.63,4.024-11.641,5.235l-1.38-2.777Z" transform="translate(-275.559 -325.237)" fill="#ada8e0"/>
            </g>
            <path id="Path_99267" data-name="Path 99267" d="M294.977,385.284c.174-10.382-26.98-8.326-31.388-8.66s-8.769,2.429-.47,6.5,21.881,8.736,26.679,6.1,5.179-3.947,5.179-3.947" transform="translate(-247.014 -340.625)" fill="#0d3e60"/>
            <path id="Path_99268" data-name="Path 99268" d="M299.611,384.66c-7.3-3.826-26.543,3.3-30.221,3.87-4.37.68-7.983,4.364,1.025,6.438s23.4,1.891,28.218-.047c4.172-1.678,3.983-7.46,3.214-8.923-.635-1.205-1.616-1.016-2.234-1.338Z" transform="translate(-251.533 -345.513)" fill="#242e47"/>
            <path id="Path_99269" data-name="Path 99269" d="M340.84,291.372c-.8,1.3-1.01,6.978-1.01,8.979l2.73,17.945a8.258,8.258,0,0,0,5.814,2.919c.4,0,.8-.018,1.185-.047a17.416,17.416,0,0,0,5.117-1.191l1-24.466c2.872-5.543-12.935-7.241-14.837-4.142Z" transform="translate(-304.367 -279.495)" fill="#ada8e0"/>
            <path id="Path_99270" data-name="Path 99270" d="M345.56,255.023l5.082-.183,2.3,9.655a2.492,2.492,0,0,1-1.846,3h0a2.493,2.493,0,0,1-3-1.846l-2.529-10.627Z" transform="translate(-308.405 -254.84)" fill="#f7b690"/>
            <g id="Group_106109" data-name="Group 106109" transform="translate(12.246 44.384)">
              <path id="Path_99271" data-name="Path 99271" d="M284.69,482.352l1.442,5.129,2.109-.331-.948-6.68Z" transform="translate(-277.765 -458.192)" fill="#242e47"/>
              <path id="Path_99272" data-name="Path 99272" d="M268.548,498.442c1.746.219,3.436-.275,3.607.165a30.158,30.158,0,0,1,.422,3.167l-11.316.165-.012-.786A31.771,31.771,0,0,0,265.883,500c.987-.549,2.668-1.554,2.668-1.554Z" transform="translate(-261.25 -470.837)" fill="#242e47"/>
              <path id="Path_99273" data-name="Path 99273" d="M265.867,405.23c5.879-1.318,7.679,5.637,7.88,9.6s1.666,18.607,1.666,18.607l-4.8-.547s-5.557-21.482-5.859-24.179S265.867,405.23,265.867,405.23Z" transform="translate(-263.693 -405.066)" fill="#242e47"/>
            </g>
            <g id="Group_106110" data-name="Group 106110" transform="translate(0 36.189)">
              <path id="Path_99274" data-name="Path 99274" d="M225.124,471.511c1.69-.5,3.04-1.625,3.371-1.288a30.42,30.42,0,0,1,1.652,2.733l-10.022,4.55-.325-.715A29.808,29.808,0,0,0,223.3,474C223.984,473.1,225.124,471.511,225.124,471.511Z" transform="translate(-219.8 -442.734)" fill="#242e47"/>
              <path id="Path_99275" data-name="Path 99275" d="M239.949,454.69l-1.909,6.456,2.408-.505,2.706-6.181Z" transform="translate(-232.651 -431.672)" fill="#242e47"/>
              <path id="Path_99276" data-name="Path 99276" d="M245.452,377.333c5.841,1.486,4.263,8.559,2.627,12.22s-6.1,16.521-6.1,16.521l-5.173-.972s5.094-22.578,6.057-25.143,2.582-2.629,2.582-2.629Z" transform="translate(-231.784 -377.33)" fill="#0d3e60"/>
            </g>
            <g id="Group_106111" data-name="Group 106111" transform="translate(37.909 11.765)">
              <path id="Path_99277" data-name="Path 99277" d="M351.59,300.55l-.653.872-2.827,25.027,2.174,3.046,2.177-2.393-.434-25.9Z" transform="translate(-348.11 -298.81)" fill="#f5a714"/>
              <path id="Path_99278" data-name="Path 99278" d="M356.21,295.094l.434,2.177,1.09.219,1.087-2.4-1.306-.434Z" transform="translate(-353.817 -294.66)" fill="#e69500"/>
            </g>
            <path id="Path_99279" data-name="Path 99279" d="M351.063,288.8a2.334,2.334,0,0,1,.748-1.306,2.281,2.281,0,0,0,2.31,1.149,5.18,5.18,0,0,0,2.6-2.062,1.738,1.738,0,0,1,1.108,1.66c.092,1.371-2.281,3.773-2.281,3.773s-.555-2.715-1.687-2.83-2.3,2.393-2.3,2.393a5.113,5.113,0,0,1-.49-2.777Z" transform="translate(-312.247 -277.202)" fill="#fff"/>
            <g id="Group_106116" data-name="Group 106116" transform="translate(29.956 12.202)">
              <g id="Group_106113" data-name="Group 106113" transform="translate(7.806)">
                <path id="Path_99280" data-name="Path 99280" d="M384.1,316.38c-1.894.747-3.288-1.185-4.978-4.931s-5.534-6.163-6.006-10.42,4.538-6.964,6.695-2.854,5.129,12.76,5.309,15.529-1.016,2.677-1.016,2.677Z" transform="translate(-365.558 -296.139)" fill="#8781c9"/>
                <g id="Group_106112" data-name="Group 106112" transform="translate(0 16.004)">
                  <path id="Path_99281" data-name="Path 99281" d="M349.026,352.582c5.064.186,13.224-1.43,16-.573s2.115,2.931.913,3.708-11.162.473-15.922-1.155-.993-1.977-.993-1.977Z" transform="translate(-347.612 -351.328)" fill="#f7b690"/>
                  <path id="Path_99282" data-name="Path 99282" d="M361.33,351.363c4.89-.245,11.029-1.56,13.348-.845,2.78.857,2.476,3.377,1.276,4.154-.951.615-9.561.842-14.566-.018Z" transform="translate(-357.277 -350.307)" fill="#8781c9"/>
                </g>
              </g>
              <g id="Group_106115" data-name="Group 106115" transform="translate(0 17.262)">
                <path id="Path_99283" data-name="Path 99283" d="M330.972,358.493h0a.479.479,0,0,1,.29.609l-.966,2.7a.477.477,0,0,1-.609.287h0a.481.481,0,0,1-.29-.609l.966-2.7A.478.478,0,0,1,330.972,358.493Z" transform="translate(-326.954 -357.313)" fill="#f7b690"/>
                <path id="Path_99284" data-name="Path 99284" d="M327.162,359.684h0a.473.473,0,0,1,.012.671l-2,2.059a.479.479,0,0,1-.674.012h0a.473.473,0,0,1-.012-.671l2-2.059A.479.479,0,0,1,327.162,359.684Z" transform="translate(-323.422 -358.078)" fill="#f7b690"/>
                <g id="Group_106114" data-name="Group 106114">
                  <path id="Path_99285" data-name="Path 99285" d="M339.941,357.671h0a1.1,1.1,0,0,1,.393,1.643l-.074.1a1.105,1.105,0,0,1-1.058.423l-1.2-.041a1.777,1.777,0,0,0-1.135.414l-.443.337c-.461.358-1.3.358-1.507-.015h0a.355.355,0,0,1,.139-.485l3.82-2.325A1.109,1.109,0,0,1,339.941,357.671Z" transform="translate(-330.833 -356.674)" fill="#dea477"/>
                  <path id="Path_99286" data-name="Path 99286" d="M330.276,354.57l-3.888.346a1.242,1.242,0,0,0-.4.1l-4.674,2.118a.212.212,0,0,0-.092.3h0a.864.864,0,0,0,1,.369l3.188-1.025a2.25,2.25,0,0,1,1.235-.038l1.539.39s1.962,1.409,3.09-.378a1.306,1.306,0,0,0-.313-2.027,1.1,1.1,0,0,0-.688-.163Z" transform="translate(-321.191 -354.565)" fill="#f7b690"/>
                </g>
              </g>
            </g>
            <g id="Group_106118" data-name="Group 106118" transform="translate(7.88 31.968)">
              <g id="Group_106117" data-name="Group 106117">
                <path id="Path_99287" data-name="Path 99287" d="M253.49,368.647c-.355-.981-1.79-1.717-3.51-1.717s-3.155.736-3.51,1.717Z" transform="translate(-246.47 -365.781)" fill="#fff"/>
                <path id="Path_99288" data-name="Path 99288" d="M255.7,363.385l-3.294-.337a1.069,1.069,0,0,0-.349.024l-4.234,1.013a.178.178,0,0,0-.127.236h0a.73.73,0,0,0,.771.467l2.822-.34a1.913,1.913,0,0,1,1.034.165l1.217.573s1.409,1.489,2.635.183a1.109,1.109,0,0,0,.065-1.74.921.921,0,0,0-.547-.245Z" transform="translate(-247.323 -363.043)" fill="#f7b690"/>
              </g>
              <path id="Path_99289" data-name="Path 99289" d="M262.505,366.879h0a1.1,1.1,0,0,0-.514-1.61l-.115-.044a1.1,1.1,0,0,0-1.123.186l-1,.656a1.776,1.776,0,0,1-1.185.233l-.555-.059c-.579-.065-1.3.366-1.282.792h0a.353.353,0,0,0,.369.343l4.473.015a1.1,1.1,0,0,0,.931-.508Z" transform="translate(-253.698 -364.525)" fill="#f7b690"/>
            </g>
          </g>
        </g>
        <g id="Group_106121" data-name="Group 106121" transform="translate(0 65.613)">
          <rect id="Rectangle_55634" data-name="Rectangle 55634" width="79.319" height="0.801" fill="#0d3e60"/>
          <path id="Path_99290" data-name="Path 99290" d="M108.952,415.246a.339.339,0,0,0,.334-.281l6.9-39.463a.339.339,0,0,0-.668-.118l-6.9,39.463a.341.341,0,0,0,.275.393.4.4,0,0,0,.059.006Z" transform="translate(-106.747 -374.406)" fill="#0d3e60"/>
          <path id="Path_99291" data-name="Path 99291" d="M346.367,415.246a.339.339,0,0,1-.334-.281l-6.9-39.463a.339.339,0,0,1,.668-.118l6.9,39.463a.341.341,0,0,1-.275.393.405.405,0,0,1-.059.006Z" transform="translate(-269.161 -374.406)" fill="#0d3e60"/>
        </g>
        <rect id="Rectangle_55635" data-name="Rectangle 55635" width="8.571" height="1.232" transform="translate(62.286 64.381)" fill="#fff"/>
        <g id="Group_106122" data-name="Group 106122" transform="translate(31.613 24.749)">
          <path id="Path_99292" data-name="Path 99292" d="M219.456,234.43a17.463,17.463,0,0,0,.145,9.348l5.67,20.46a17.468,17.468,0,0,0,4.686,8.089Z" transform="translate(-216.055 -234.43)" fill="#e0e0e0"/>
          <path id="Path_99293" data-name="Path 99293" d="M211.442,336.5h11.265a.312.312,0,1,0,0-.623H211.442a1.514,1.514,0,0,1-1.262-2.349L217.788,322a.311.311,0,0,0-.52-.343l-7.611,11.531a2.136,2.136,0,0,0,1.785,3.312Z" transform="translate(-209.299 -295.786)" fill="#e0e0e0"/>
        </g>
      </g>
      <g id="Group_106124" data-name="Group 106124" transform="translate(67.082 24.783)">
        <path id="Path_99294" data-name="Path 99294" d="M334.312,246.152c-1.111,3.241,2.662,7.052,2.662,7.052l.576-7.374-3.238.322Z" transform="translate(-332.702 -242.495)" fill="#242e47"/>
        <path id="Path_99295" data-name="Path 99295" d="M342.555,239.12c-4.062-1.164-5.51.747-5.658,3.938s.9,8.816,3,9.067a5.076,5.076,0,0,0,5.318-4.822c.083-3.235-.375-7.525-2.668-8.184Z" transform="translate(-334.658 -237.526)" fill="#f7b690"/>
        <path id="Path_99296" data-name="Path 99296" d="M330.178,235.422c-1.569,2.473-.759,3.755,1.2,3.59a14.016,14.016,0,0,0,6.009-1.359c-.969,2.4,2.325,6.317,1.064,7.23s-3.418-.659-5.962.346c-1.56.615-.053,5.723,1.805,5.578s5.909-1.743,5.944-3.48-2.056-5.286-1.43-6.574.452-1.132.567-.269.928,4.7.928,4.7.635-4.355.035-6.837-1.982-4.429-4.429-3.613-2.606,1.69-4.172,1.631-1.569-.945-1.569-.945Z" transform="translate(-329.351 -234.542)" fill="#242e47"/>
      </g>
    </g>
    <path id="icons8-add" d="M9.471,3a6.471,6.471,0,1,0,6.471,6.471A6.471,6.471,0,0,0,9.471,3Zm2.7,7.01H10.01v2.157a.539.539,0,1,1-1.078,0V10.01H6.774a.539.539,0,1,1,0-1.078H8.931V6.774a.539.539,0,1,1,1.078,0V8.931h2.157a.539.539,0,0,1,0,1.078Z" transform="translate(86.1 81.125)" fill="#e7e5fd"/>
    <path id="icons8-add-2" data-name="icons8-add" d="M9.471,3a6.471,6.471,0,1,0,6.471,6.471A6.471,6.471,0,0,0,9.471,3Zm2.7,7.01H10.01v2.157a.539.539,0,1,1-1.078,0V10.01H6.774a.539.539,0,1,1,0-1.078H8.931V6.774a.539.539,0,1,1,1.078,0V8.931h2.157a.539.539,0,0,1,0,1.078Z" transform="translate(158.894 150.144)" fill="#e7e5fd"/>
    <path id="Path_99297" data-name="Path 99297" d="M378.87,363.508h-.821a.824.824,0,0,1-.825-.824v-.821a.858.858,0,0,0-.661-.851.829.829,0,0,0-1,.813v.859a.824.824,0,0,1-.824.824h-.821a.858.858,0,0,0-.851.661.829.829,0,0,0,.813,1h.859a.824.824,0,0,1,.824.824v.821a.858.858,0,0,0,.661.851.829.829,0,0,0,1-.813v-.859a.824.824,0,0,1,.824-.824h.859a.831.831,0,0,0,.813-1,.854.854,0,0,0-.851-.661Z" transform="translate(-212.551 -180.99)" fill="#e8e6f9"/>
    <path id="Path_99298" data-name="Path 99298" d="M104.388,191.816h-.733a.738.738,0,0,1-.737-.737v-.733a.767.767,0,0,0-.593-.76.742.742,0,0,0-.889.726v.767a.738.738,0,0,1-.737.737h-.733a.767.767,0,0,0-.76.593.742.742,0,0,0,.726.889h.767a.738.738,0,0,1,.737.737v.733a.767.767,0,0,0,.593.76.742.742,0,0,0,.889-.726v-.767a.738.738,0,0,1,.737-.737h.767a.742.742,0,0,0,.726-.889A.761.761,0,0,0,104.388,191.816Z" transform="translate(-42.739 -74.697)" fill="#e8e6f9"/>
    <path id="Path_99299" data-name="Path 99299" d="M573.329,1757.474H455.509a.2.2,0,0,1-.169-.217h0a.2.2,0,0,1,.169-.217h117.82a.2.2,0,0,1,.169.217h0A.2.2,0,0,1,573.329,1757.474Z" transform="translate(-417.16 -1539.123)" fill="#dad6f6"/>
  </g>
</svg>
